<?xml version="1.0" encoding="UTF-8"?> <svg xmlns="http://www.w3.org/2000/svg" width="72" height="106" viewBox="0 0 72 106" fill="none"><path d="M41.0649 9.78006C30.2463 12.8281 23.7369 15.7094 21.5503 26.7001C19.2503 38.2401 31.8836 50.7747 32.8903 51.6987C32.6356 51.1467 32.4156 50.6054 32.2169 50.0734C29.7356 45.9387 27.3983 40.8427 27.6049 36.5521C27.9796 28.7121 33.4529 25.8507 44.6556 22.2254C54.8556 18.9254 64.7783 11.9134 70.7516 0.725396C70.7636 0.686729 70.7729 0.649398 70.7836 0.609398C70.7836 0.609398 47.7956 7.8854 41.0649 9.78006" fill="url(#paint0_linear_124_3)"></path><path d="M44.6557 22.2252C33.453 25.8506 27.9797 28.7119 27.605 36.5519C27.3984 40.8426 29.7357 45.9386 32.217 50.0732C28.521 40.2066 34.1517 33.8079 42.005 31.2319C51.4397 28.1119 54.861 26.9079 60.4317 22.9399C68.629 17.1012 68.0757 9.52258 70.7517 0.725243C64.7784 11.9132 54.8557 18.9252 44.6557 22.2252Z" fill="url(#paint1_linear_124_3)"></path><path d="M55.545 34.9867C59.0797 40.8747 62.4063 48.1307 62.113 54.2414C61.5783 65.4054 53.785 69.4801 37.8317 74.6427C23.309 79.3441 9.17967 89.3281 0.673 105.257C0.655667 105.313 0.642333 105.365 0.625 105.421C0.625 105.421 33.3623 95.0614 42.9463 92.3627C58.3517 88.0241 67.617 83.9214 70.7343 68.2667C74.0077 51.8361 56.021 33.9867 54.5863 32.6721C54.949 33.4587 55.2623 34.2281 55.545 34.9867Z" fill="url(#paint2_linear_124_3)"></path><path d="M41.6067 61.816C28.172 66.2573 23.3013 67.9747 15.368 73.6267C3.69601 81.94 4.48134 92.732 0.67334 105.257C9.18001 89.328 23.3093 79.344 37.832 74.6427C53.7853 69.48 61.5787 65.4053 62.1133 54.2413C62.4067 48.1307 59.08 40.8747 55.5453 34.9867C60.8107 49.036 52.7907 58.1493 41.6067 61.816Z" fill="url(#paint3_linear_124_3)"></path><path d="M55.4478 34.6989C58.9785 40.5816 62.3038 47.8322 62.0118 53.9402C61.4758 65.0949 53.6892 69.1709 37.7438 74.3282C23.2332 79.0242 9.1105 89.0042 0.6105 104.926C0.593167 104.979 0.5785 105.034 0.5625 105.087C0.5625 105.087 33.2798 94.7362 42.8558 92.0389C58.2532 87.7016 67.5132 83.5989 70.6292 67.9576C73.8985 51.5349 55.9212 33.6989 54.4905 32.3842C54.8505 33.1722 55.1652 33.9402 55.4478 34.6989Z" fill="url(#paint4_linear_124_3)"></path><path d="M41.517 61.5093C28.0917 65.948 23.2237 67.6653 15.297 73.312C3.63035 81.62 4.41702 92.4053 0.610352 104.925C9.11035 89.004 23.233 79.024 37.7437 74.328C53.689 69.1706 61.4757 65.0946 62.0117 53.94C62.3037 47.832 58.9783 40.5813 55.4477 34.6986C60.7103 48.7373 52.6957 57.8453 41.517 61.5093Z" fill="url(#paint5_linear_124_3)"></path><path d="M36.7412 44.2881C36.7412 48.4455 40.0532 51.8135 44.1385 51.8135C48.2252 51.8135 51.5372 48.4455 51.5372 44.2881C51.5372 40.1308 48.2252 36.7628 44.1385 36.7628C40.0532 36.7628 36.7412 40.1308 36.7412 44.2881" fill="url(#paint6_radial_124_3)"></path><path d="M36.7412 44.2881C36.7412 48.4455 40.0532 51.8135 44.1385 51.8135C48.2252 51.8135 51.5372 48.4455 51.5372 44.2881C51.5372 40.1308 48.2252 36.7628 44.1385 36.7628C40.0532 36.7628 36.7412 40.1308 36.7412 44.2881" fill="url(#paint7_radial_124_3)"></path><defs><linearGradient id="paint0_linear_124_3" x1="79.8121" y1="8.14796" x2="21.0808" y2="38.1035" gradientUnits="userSpaceOnUse"><stop stop-color="#141A4D"></stop><stop offset="0.401767" stop-color="#141A4D"></stop><stop offset="1" stop-color="#0075AD"></stop></linearGradient><linearGradient id="paint1_linear_124_3" x1="22.4294" y1="47.8965" x2="72.67" y2="1.37091" gradientUnits="userSpaceOnUse"><stop stop-color="#141A4D"></stop><stop offset="0.938016" stop-color="#0075AD"></stop><stop offset="1" stop-color="#0075AD"></stop></linearGradient><linearGradient id="paint2_linear_124_3" x1="-62.0329" y1="78.8993" x2="105.971" y2="60.4346" gradientUnits="userSpaceOnUse"><stop stop-color="#1C326C"></stop><stop offset="0.308901" stop-color="#1C326C"></stop><stop offset="1" stop-color="#006EB8"></stop></linearGradient><linearGradient id="paint3_linear_124_3" x1="62.1315" y1="70.1219" x2="0.67449" y2="70.1219" gradientUnits="userSpaceOnUse"><stop stop-color="#1C326C"></stop><stop offset="1" stop-color="#006EB8"></stop></linearGradient><linearGradient id="paint4_linear_124_3" x1="-12.284" y1="94.3643" x2="71.2958" y2="51.7349" gradientUnits="userSpaceOnUse"><stop stop-color="#141A4D"></stop><stop offset="0.401767" stop-color="#141A4D"></stop><stop offset="1" stop-color="#0075AD"></stop></linearGradient><linearGradient id="paint5_linear_124_3" x1="69.3773" y1="37.7989" x2="-2.11965" y2="104.009" gradientUnits="userSpaceOnUse"><stop stop-color="#141A4D"></stop><stop offset="0.938016" stop-color="#0075AD"></stop><stop offset="1" stop-color="#0075AD"></stop></linearGradient><radialGradient id="paint6_radial_124_3" cx="0" cy="0" r="1" gradientUnits="userSpaceOnUse" gradientTransform="translate(44.1392 44.2874) scale(7.46219 7.46219)"><stop stop-color="#0066B2"></stop><stop offset="0.0347557" stop-color="#0066B2"></stop><stop offset="0.980488" stop-color="#113876"></stop><stop offset="0.980587" stop-color="#113876"></stop><stop offset="1" stop-color="#113876"></stop></radialGradient><radialGradient id="paint7_radial_124_3" cx="0" cy="0" r="1" gradientUnits="userSpaceOnUse" gradientTransform="translate(44.1392 44.2874) scale(7.46219 7.46219)"><stop stop-color="#D3D3D3"></stop><stop offset="0.0347557" stop-color="#D3D3D3"></stop><stop offset="0.980488" stop-color="#979796"></stop><stop offset="0.980587" stop-color="#979796"></stop><stop offset="1" stop-color="#979796"></stop></radialGradient></defs></svg> 