<?xml version="1.0" encoding="UTF-8"?> <svg xmlns="http://www.w3.org/2000/svg" width="240" height="119" viewBox="0 0 240 119" fill="none"><path d="M91.7064 79.3458C91.4537 79.3458 91.2368 79.2552 91.0558 79.0742C90.8748 78.8932 90.7843 78.6764 90.7843 78.4237C90.7843 78.1709 90.8748 77.9541 91.0558 77.7731C91.2368 77.5921 91.4537 77.5016 91.7064 77.5016C91.9591 77.5016 92.176 77.5921 92.357 77.7731C92.538 77.9541 92.6285 78.1709 92.6285 78.4237C92.6285 78.591 92.5858 78.7447 92.5004 78.8847C92.4184 79.0247 92.3074 79.1374 92.1674 79.2228C92.0308 79.3048 91.8771 79.3458 91.7064 79.3458ZM97.9946 79.4277C97.2569 79.4277 96.6217 79.2535 96.0889 78.9052C95.5561 78.5568 95.1463 78.077 94.8594 77.4657C94.5726 76.8544 94.4291 76.156 94.4291 75.3705C94.4291 74.5713 94.576 73.8661 94.8697 73.2548C95.1668 72.6401 95.58 72.1602 96.1094 71.8153C96.6422 71.467 97.2637 71.2928 97.9741 71.2928C98.5273 71.2928 99.0259 71.3952 99.4699 71.6001C99.9139 71.8051 100.278 72.0919 100.561 72.4608C100.845 72.8296 101.02 73.2599 101.089 73.7517H99.8797C99.7875 73.3931 99.5826 73.0755 99.265 72.7989C98.9508 72.5188 98.5273 72.3788 97.9946 72.3788C97.5233 72.3788 97.11 72.5017 96.7549 72.7476C96.4031 72.9901 96.1282 73.3333 95.9301 73.7773C95.7354 74.2179 95.6381 74.7353 95.6381 75.3295C95.6381 75.9374 95.7337 76.4668 95.925 76.9176C96.1196 77.3684 96.3928 77.7184 96.7446 77.9677C97.0998 78.217 97.5164 78.3417 97.9946 78.3417C98.3088 78.3417 98.5939 78.287 98.8501 78.1778C99.1062 78.0685 99.3231 77.9114 99.5007 77.7065C99.6782 77.5016 99.8046 77.2557 99.8797 76.9688H101.089C101.02 77.4333 100.851 77.8516 100.582 78.2239C100.315 78.5927 99.9617 78.8864 99.5211 79.105C99.084 79.3201 98.5751 79.4277 97.9946 79.4277ZM106.053 79.4277C105.342 79.4277 104.719 79.2587 104.183 78.9206C103.65 78.5825 103.233 78.1095 102.933 77.5016C102.636 76.8937 102.487 76.1833 102.487 75.3705C102.487 74.5509 102.636 73.8354 102.933 73.2241C103.233 72.6127 103.65 72.138 104.183 71.7999C104.719 71.4618 105.342 71.2928 106.053 71.2928C106.763 71.2928 107.385 71.4618 107.917 71.7999C108.454 72.138 108.87 72.6127 109.167 73.2241C109.468 73.8354 109.618 74.5509 109.618 75.3705C109.618 76.1833 109.468 76.8937 109.167 77.5016C108.87 78.1095 108.454 78.5825 107.917 78.9206C107.385 79.2587 106.763 79.4277 106.053 79.4277ZM106.053 78.3417C106.592 78.3417 107.036 78.2034 107.385 77.9267C107.733 77.6501 107.991 77.2864 108.158 76.8356C108.325 76.3848 108.409 75.8964 108.409 75.3705C108.409 74.8446 108.325 74.3545 108.158 73.9003C107.991 73.446 107.733 73.0789 107.385 72.7989C107.036 72.5188 106.592 72.3788 106.053 72.3788C105.513 72.3788 105.069 72.5188 104.721 72.7989C104.372 73.0789 104.115 73.446 103.947 73.9003C103.78 74.3545 103.696 74.8446 103.696 75.3705C103.696 75.8964 103.78 76.3848 103.947 76.8356C104.115 77.2864 104.372 77.6501 104.721 77.9267C105.069 78.2034 105.513 78.3417 106.053 78.3417ZM111.464 79.2638V71.3952H112.632V72.6247H112.734C112.898 72.2046 113.163 71.8785 113.528 71.6462C113.893 71.4106 114.332 71.2928 114.845 71.2928C115.364 71.2928 115.796 71.4106 116.141 71.6462C116.489 71.8785 116.761 72.2046 116.955 72.6247H117.037C117.239 72.2183 117.541 71.8956 117.944 71.6565C118.347 71.414 118.83 71.2928 119.394 71.2928C120.097 71.2928 120.673 71.5131 121.12 71.9536C121.567 72.3908 121.791 73.0721 121.791 73.9976V79.2638H120.582V73.9976C120.582 73.417 120.423 73.0021 120.106 72.7528C119.788 72.5035 119.414 72.3788 118.984 72.3788C118.431 72.3788 118.002 72.5461 117.698 72.8808C117.394 73.2121 117.242 73.6322 117.242 74.141V79.2638H116.013V73.8746C116.013 73.4273 115.867 73.067 115.577 72.7937C115.287 72.5171 114.913 72.3788 114.455 72.3788C114.141 72.3788 113.847 72.4625 113.574 72.6298C113.304 72.7972 113.086 73.0294 112.918 73.3265C112.755 73.6202 112.673 73.96 112.673 74.3459V79.2638H111.464Z" fill="white"></path><path d="M46.274 11.801C34.0998 15.2309 26.7749 18.4733 24.3143 30.841C21.7261 43.8269 35.9423 57.9321 37.0751 58.9719C36.7885 58.3507 36.541 57.7415 36.3174 57.1429C33.5252 52.4902 30.895 46.7557 31.1275 41.9274C31.5491 33.1051 37.7083 29.8852 50.3146 25.8057C61.7926 22.0922 72.9585 14.2016 79.6803 1.61183C79.6938 1.56831 79.7043 1.52631 79.7163 1.48129C79.7163 1.48129 53.848 9.66894 46.274 11.801" fill="white"></path><path d="M49.6179 24.8334C37.0116 28.913 30.8525 32.1328 30.4309 40.9551C30.1983 45.7834 32.8285 51.5179 35.6207 56.1706C31.4616 45.0677 37.7978 37.8673 46.6351 34.9686C57.2519 31.4576 61.1019 30.1028 67.3706 25.6376C76.595 19.0674 75.9723 10.5392 78.9836 0.639557C72.2618 13.2294 61.0959 21.1199 49.6179 24.8334Z" fill="white"></path><path d="M61.8715 39.1937C65.8491 45.8194 69.5925 53.9846 69.2625 60.8609C68.6608 73.4237 59.891 78.0089 41.9388 83.8184C25.5965 89.1088 9.69684 100.344 0.124327 118.269C0.104822 118.332 0.0898176 118.39 0.0703125 118.453C0.0703125 118.453 36.9095 106.795 47.6943 103.759C65.0299 98.8763 75.4561 94.2596 78.964 76.6435C82.6475 58.1542 62.4072 38.0684 60.7927 36.589C61.2008 37.4742 61.5534 38.34 61.8715 39.1937Z" fill="white"></path><path d="M46.1866 69.3847C31.0686 74.3825 25.5877 76.315 16.6603 82.6752C3.5259 92.0301 4.40964 104.174 0.124512 118.269C9.69702 100.344 25.5967 89.1089 41.939 83.8185C59.8912 78.0089 68.661 73.4238 69.2626 60.861C69.5927 53.9847 65.8492 45.8195 61.8717 39.1938C67.7968 55.0034 58.7719 65.2586 46.1866 69.3847Z" fill="white"></path><path d="M61.7622 38.8696C65.7352 45.4893 69.4772 53.6484 69.1486 60.5217C68.5455 73.074 59.7832 77.6607 41.84 83.4643C25.5112 88.7486 9.61902 99.9791 0.054014 117.895C0.0345089 117.955 0.0180047 118.017 0 118.077C0 118.077 36.8167 106.429 47.5925 103.394C64.919 98.5132 75.3393 93.8965 78.8457 76.2954C82.5246 57.815 62.2948 37.7443 60.6849 36.2649C61.09 37.1516 61.4441 38.0158 61.7622 38.8696Z" fill="white"></path><path d="M46.0858 69.0396C30.9783 74.0344 25.5004 75.9669 16.5805 82.321C3.4521 91.67 4.33733 103.807 0.0537109 117.895C9.61872 99.9792 25.5109 88.7487 41.8397 83.4643C59.7829 77.6608 68.5452 73.0741 69.1483 60.5218C69.4769 53.6485 65.7349 45.4894 61.7619 38.8696C67.684 54.6673 58.6651 64.9165 46.0858 69.0396Z" fill="white"></path><path d="M40.7119 49.6604C40.7119 54.3386 44.4389 58.1286 49.0361 58.1286C53.6348 58.1286 57.3618 54.3386 57.3618 49.6604C57.3618 44.9822 53.6348 41.1922 49.0361 41.1922C44.4389 41.1922 40.7119 44.9822 40.7119 49.6604" fill="white"></path><path d="M40.7119 49.6604C40.7119 54.3386 44.4389 58.1286 49.0361 58.1286C53.6348 58.1286 57.3618 54.3386 57.3618 49.6604C57.3618 44.9822 53.6348 41.1922 49.0361 41.1922C44.4389 41.1922 40.7119 44.9822 40.7119 49.6604" fill="white"></path><path d="M97.7789 34.403C93.0317 34.403 89.7158 37.3798 89.7158 41.6409V46.8112C89.7158 48.4587 90.9957 50.2291 92.5696 50.7543L109.272 56.3207C109.414 56.3642 109.571 56.5698 109.571 56.7153V60.6689C109.571 62.1408 108.454 63.2931 107.032 63.2931H90.9581C90.262 63.2931 89.7158 63.8392 89.7158 64.5354V68.3824H107.032C111.481 68.3824 114.835 65.05 114.835 60.6269V55.9771C114.835 54.2517 113.638 52.4977 112.111 51.9891L95.4098 46.4661C95.2733 46.4271 95.1127 46.2156 95.1127 46.028V41.8149C95.1127 40.4691 96.2335 39.4938 97.7789 39.4938H112.679C113.376 39.4938 113.922 38.9492 113.922 38.2515V34.403H97.7789Z" fill="white"></path><path d="M125.367 34.2289C120.923 34.2289 117.304 37.8479 117.304 42.292V60.4948C117.304 64.9405 120.923 68.5564 125.367 68.5564H135.185C139.63 68.5564 143.247 64.9405 143.247 60.4948V42.292C143.247 37.8479 139.63 34.2289 135.185 34.2289H125.367ZM122.741 60.8414V41.9454C122.741 40.4991 123.919 39.3213 125.367 39.3213H135.185C136.63 39.3213 137.808 40.4991 137.808 41.9454V60.8414C137.808 62.2908 136.63 63.4671 135.185 63.4671H125.367C123.919 63.4671 122.741 62.2908 122.741 60.8414Z" fill="white"></path><path d="M153.789 34.403C149.342 34.403 145.726 38.0189 145.726 42.4646V68.3824H149.921C150.594 68.3824 151.165 67.8137 151.165 67.1431V53.9156H166.865C167.537 53.9156 168.105 53.3484 168.105 52.6748V48.8263H152.657C152.134 48.8263 151.621 48.9328 151.165 49.1293V42.118C151.165 40.6716 152.341 39.4938 153.789 39.4938H167.864C168.536 39.4938 169.106 38.9237 169.106 38.2515V34.403H153.789Z" fill="white"></path><path d="M172.818 34.403C172.145 34.403 171.576 34.9746 171.576 35.6453V39.4938H181.308V68.3824H185.501C186.199 68.3824 186.744 67.8362 186.744 67.1431V39.4938H195.365C196.036 39.4938 196.606 38.9237 196.606 38.2515V34.403H172.818Z" fill="white"></path><path d="M199.075 34.403V67.1431C199.075 67.8137 199.644 68.3824 200.316 68.3824H204.513V35.6453C204.513 34.9746 203.944 34.403 203.272 34.403H199.075Z" fill="white"></path><path d="M221.97 34.403C220.162 34.403 218.529 35.5613 217.899 37.2912L206.982 68.3824H211.5C212.147 68.3824 212.762 67.9338 212.921 67.3636L215.674 59.434H231.305L234.047 67.3261C234.225 67.9488 234.813 68.3824 235.481 68.3824H240L228.279 35.1037L228.267 35.0812C228.063 34.6775 227.61 34.403 227.14 34.403H221.97ZM222.56 39.6183C222.578 39.5718 222.623 39.4938 222.707 39.4938H224.355L229.532 54.3447H217.448L222.56 39.6183Z" fill="white"></path></svg> 